<?xml version="1.0" encoding="UTF-8"?><!DOCTYPE svg PUBLIC "-//W3C//DTD SVG 1.1//EN" "http://www.w3.org/Graphics/SVG/1.1/DTD/svg11.dtd"><svg xmlns="http://www.w3.org/2000/svg"><symbol id="circle" viewBox="0 0 40 40"><circle fill="#FFF" stroke="#1D1D1B" stroke-miterlimit="10" cx="20" cy="20" r="10"/></symbol><symbol id="linkedin" viewBox="0 0 126.6666641 126.6666641"><circle fill="#1662A5" cx="63.333" cy="63.333" r="63.333"/><path fill="#FFF" d="M34.67 47h13.146v42.277H34.67V47zm6.574-21.017c4.2 0 7.615 3.415 7.615 7.616 0 4.208-3.415 7.622-7.615 7.622a7.617 7.617 0 0 1-7.617-7.622 7.616 7.616 0 0 1 7.617-7.616M56.057 47h12.605v5.776h.18c1.754-3.323 6.041-6.83 12.434-6.83 13.296 0 15.752 8.755 15.752 20.142v23.189H83.903V68.719c0-4.904-.096-11.21-6.83-11.21-6.837 0-7.88 5.34-7.88 10.855v20.913H56.057V47z"/></symbol><symbol id="square"><path fill="none" stroke="#1D1D1B" stroke-miterlimit="10" d="M10 10h20v20H10z"/></symbol><symbol id="twitter" viewBox="0 0 125.4911728 125.4891968"><circle fill-rule="evenodd" clip-rule="evenodd" fill="#1BB7CD" cx="62.744" cy="62.745" r="62.745"/><path fill="#FFF" d="M51.803 89.537c24.56 0 37.99-20.348 37.99-37.991 0-.579-.01-1.154-.037-1.727a27.167 27.167 0 0 0 6.66-6.913 26.652 26.652 0 0 1-7.667 2.102 13.398 13.398 0 0 0 5.871-7.386 26.758 26.758 0 0 1-8.478 3.24 13.34 13.34 0 0 0-9.747-4.218c-7.374 0-13.354 5.98-13.354 13.352 0 1.048.117 2.066.346 3.044-11.097-.558-20.937-5.871-27.522-13.95a13.305 13.305 0 0 0-1.808 6.71c0 4.633 2.357 8.723 5.941 11.115a13.254 13.254 0 0 1-6.047-1.67c-.003.055-.003.111-.003.17 0 6.467 4.603 11.866 10.712 13.09a13.39 13.39 0 0 1-6.03.23c1.7 5.304 6.63 9.164 12.474 9.273a26.794 26.794 0 0 1-16.584 5.716 27.18 27.18 0 0 1-3.185-.185 37.802 37.802 0 0 0 20.468 5.998"/></symbol><symbol id="youtubes" viewBox="0 0 123.6053467 123.6055298"><path fill-rule="evenodd" clip-rule="evenodd" fill="#C32836" d="M61.803 0C27.67 0 0 27.67 0 61.803s27.67 61.803 61.803 61.803 61.802-27.67 61.802-61.803S95.935 0 61.803 0z"/><path fill="#FFF" d="M84.964 86.304H38.64c-6.58 0-11.915-5.334-11.915-11.915V49.215c0-6.58 5.334-11.915 11.915-11.915h46.323c6.58 0 11.915 5.334 11.915 11.915v25.174c0 6.58-5.335 11.915-11.915 11.915z"/><path fill-rule="evenodd" clip-rule="evenodd" fill="#C32836" d="M77.675 61.775L54.397 47.787V75.82l23.278-14.044z"/></symbol></svg>