<?xml version="1.0" encoding="utf-8"?>
<!-- Generator: Adobe Illustrator 18.1.0, SVG Export Plug-In . SVG Version: 6.00 Build 0)  -->
<svg version="1.1" id="Layer_1" xmlns="http://www.w3.org/2000/svg" xmlns:xlink="http://www.w3.org/1999/xlink" x="0px" y="0px"
	 width="126.6666641px" height="126.6666641px" viewBox="0 0 126.6666641 126.6666641"
	 enable-background="new 0 0 126.6666641 126.6666641" xml:space="preserve">
<circle fill="#1662A5" cx="63.3333282" cy="63.3333282" r="63.3333321"/>
<path fill="#FFFFFF" d="M34.6702042,47.0002785h13.145401v42.2767448h-13.145401V47.0002785z M41.2436371,25.9827995
	c4.2008476,0,7.6148796,3.414917,7.6148796,7.6164589c0,4.2072487-3.414032,7.6212807-7.6148796,7.6212807
	c-4.2119102,0-7.6164284-3.414032-7.6164284-7.6212807C33.6272087,29.3977165,37.0317268,25.9827995,41.2436371,25.9827995"/>
<path fill="#FFFFFF" d="M56.0568581,47.0002785h12.6055107v5.7756348h0.1794739
	c1.7542648-3.3228149,6.0415726-6.8290482,12.4340668-6.8290482c13.2960205,0,15.7521286,8.753933,15.7521286,20.1409874v23.1891708
	H83.90345V68.7186737c0-4.9041672-0.096138-11.2101974-6.8298645-11.2101974c-6.8379135,0-7.8808212,5.3398972-7.8808212,10.8559952
	v20.9125519H56.0568581V47.0002785z"/>
</svg>
