<?xml version="1.0" encoding="utf-8"?>
<!-- Generator: Adobe Illustrator 18.1.0, SVG Export Plug-In . SVG Version: 6.00 Build 0)  -->
<svg version="1.1" id="Layer_1" xmlns="http://www.w3.org/2000/svg" xmlns:xlink="http://www.w3.org/1999/xlink" x="0px" y="0px"
	 width="125.4911728px" height="125.4891968px" viewBox="0 0 125.4911728 125.4891968"
	 enable-background="new 0 0 125.4911728 125.4891968" xml:space="preserve">
<circle fill-rule="evenodd" clip-rule="evenodd" fill="#1BB7CD" cx="62.7440872" cy="62.7445869" r="62.7445984"/>
<g>
	<path fill="#FFFFFF" d="M51.8029289,89.5365448c24.5600929,0,37.9909325-20.3472748,37.9909325-37.9908867
		c0-0.5782204-0.0117416-1.1537476-0.0381699-1.7262344c2.6069107-1.8846245,4.8732834-4.2361984,6.6611099-6.9135246
		c-2.3925858,1.0627251-4.9671936,1.7790909-7.6680374,2.1019745c2.7566147-1.6527672,4.8732529-4.2684517,5.8714066-7.3862038
		c-2.5804977,1.5294876-5.4369354,2.642025-8.4783173,3.2410278c-2.4366379-2.5952606-5.9066391-4.2186432-9.7465363-4.2186432
		c-7.3744888,0-13.3545265,5.9799919-13.3545265,13.3515053c0,1.0480309,0.1174316,2.0668564,0.3464241,3.0444679
		c-11.096981-0.5577927-20.9374504-5.8714066-27.5222244-13.9505081c-1.1478806,1.9727859-1.8084106,4.2655869-1.8084106,6.7110519
		c0,4.6325493,2.3573761,8.7220001,5.9418716,11.1144295c-2.1900406-0.0673752-4.2479591-0.6692429-6.0475426-1.67033
		c-0.0029335,0.0557251-0.0029335,0.1116295-0.0029335,0.1702232c0,6.4673653,4.6031876,11.8660965,10.712368,13.0904388
		c-1.1214294,0.3051453-2.3015823,0.469635-3.5199013,0.469635c-0.8601608,0-1.696846-0.0851135-2.5100365-0.2408218
		c1.6997795,5.3048401,6.62883,9.1652985,12.4738083,9.2740555c-4.5708885,3.5814743-10.3278008,5.7157059-16.5837784,5.7157059
		c-1.0774155,0-2.1401367-0.0616379-3.1852341-0.1849213C37.244751,87.3259811,44.2611046,89.5365448,51.8029289,89.5365448"/>
</g>
</svg>
