<?xml version="1.0" encoding="utf-8"?>
<!-- Generator: Adobe Illustrator 18.1.0, SVG Export Plug-In . SVG Version: 6.00 Build 0)  -->
<svg version="1.1" id="Layer_1" xmlns="http://www.w3.org/2000/svg" xmlns:xlink="http://www.w3.org/1999/xlink" x="0px" y="0px"
	 width="123.6053467px" height="123.6055298px" viewBox="0 0 123.6053467 123.6055298"
	 enable-background="new 0 0 123.6053467 123.6055298" xml:space="preserve">
<g>
	<path fill-rule="evenodd" clip-rule="evenodd" fill="#C32836" d="M61.8026733,0C27.6698608,0,0,27.6699219,0,61.8027344
		s27.6698608,61.8027954,61.8026733,61.8027954s61.8026733-27.6699829,61.8026733-61.8027954S95.9354858,0,61.8026733,0z"/>
</g>
<path fill="#FFFFFF" d="M84.9636459,86.3044586H38.6408539c-6.5804558,0-11.9149723-5.3345184-11.9149723-11.9149704V49.2146797
	c0-6.5804558,5.3345165-11.9149704,11.9149723-11.9149704h46.3227921c6.580452,0,11.9149704,5.3345146,11.9149704,11.9149704
	v25.1748085C96.8786163,80.9699402,91.5440979,86.3044586,84.9636459,86.3044586z"/>
<path fill-rule="evenodd" clip-rule="evenodd" fill="#C32836" d="M77.6747665,61.7754288
	c-8.0468979-4.8360023-15.4726982-9.2979012-23.2773972-13.9883003c0,9.4794998,0,18.4687004,0,28.0321999
	C62.2582664,71.0771255,69.6835709,66.5967102,77.6747665,61.7754288z"/>
</svg>
